<?xml version="1.0" encoding="UTF-8"?>
<svg version="1.1" xmlns="http://www.w3.org/2000/svg" width="72" height="72">
<path d="M0 0 C4.35325518 -0.23344258 8.70489438 -0.3747943 13.0625 -0.5 C14.29162109 -0.56703125 15.52074219 -0.6340625 16.78710938 -0.703125 C25.79788157 -0.89742737 25.79788157 -0.89742737 29.43310547 1.81640625 C31.16838811 3.79958641 32.6439771 5.74388312 34 8 C36.97 7.01 39.94 6.02 43 5 C43 7.64 43 10.28 43 13 C44.10794922 13.17595703 44.10794922 13.17595703 45.23828125 13.35546875 C51.67481427 15.09750373 54.80993576 17.23751467 58.3515625 22.83203125 C59.40910146 24.7053344 60.43749643 26.59536193 61.4375 28.5 C62.19123901 29.9080188 62.19123901 29.9080188 62.96020508 31.34448242 C66.27788016 38.10898344 66.27788016 38.10898344 65.03515625 42.09375 C62.940344 44.0558774 61.82321432 44.70794335 59 45 C52.98084343 37.34816082 46.96439215 29.69467656 41 22 C36.81686761 23.89100505 33.56287087 26.65812836 30.0234375 29.5390625 C28 31 28 31 26 31 C27.32 25.39 28.64 19.78 30 14 C26.535 13.3503125 26.535 13.3503125 23 12.6875 C14.66666667 11.125 6.33333333 9.5625 -2 8 C-1.34 5.36 -0.68 2.72 0 0 Z " fill="#A6161A" transform="translate(4,14)"/>
<path d="M0 0 C9.24 2.31 18.48 4.62 28 7 C28 7.33 28 7.66 28 8 C18.12043934 7.50940538 8.66639286 5.97298648 -1 4 C-0.67 2.68 -0.34 1.36 0 0 Z " fill="#6E6B6A" transform="translate(3,18)"/>
<path d="M0 0 C15.50078003 12.8049922 15.50078003 12.8049922 20 21 C18.68 21.33 17.36 21.66 16 22 C15.26394531 21.05898438 14.52789062 20.11796875 13.76953125 19.1484375 C12.78390233 17.89058726 11.79822253 16.63277689 10.8125 15.375 C10.32974609 14.75753906 9.84699219 14.14007813 9.34960938 13.50390625 C6.99839997 10.50571976 4.62409428 7.55064644 2.13671875 4.6640625 C0 2 0 2 0 0 Z " fill="#6E6B6B" transform="translate(47,37)"/>
<path d="M0 0 C2.80881509 1.28721504 4.92788567 2.65863741 7.1640625 4.78515625 C8.01097656 5.58083008 8.01097656 5.58083008 8.875 6.39257812 C9.4525 6.94365234 10.03 7.49472656 10.625 8.0625 C14.49326309 11.96570729 14.49326309 11.96570729 19 15 C18.67 15.99 18.34 16.98 18 18 C14.74957109 16.60493574 12.92628208 15.03216606 10.6875 12.3125 C7.7199141 8.79250634 4.5972664 5.54329659 1.28515625 2.34765625 C0 1 0 1 0 0 Z " fill="#891005" transform="translate(50,39)"/>
<path d="M0 0 C5.14595054 0.57618751 9.55078055 1.74743278 14.4375 3.5625 C15.67371094 4.01753906 16.90992188 4.47257812 18.18359375 4.94140625 C19.11300781 5.29074219 20.04242187 5.64007813 21 6 C16.64830096 7.34084273 13.1169548 6.35194043 8.8125 5.25 C8.07580078 5.07984375 7.33910156 4.9096875 6.58007812 4.734375 C4.45703125 4.203125 4.45703125 4.203125 1 3 C0.67 2.01 0.34 1.02 0 0 Z " fill="#890E02" transform="translate(3,16)"/>
</svg>
